<svg xmlns="http://www.w3.org/2000/svg" viewBox="0 0 100 170">
  <rect x="13" y="0" width="74" height="7" rx="2.5" fill="#b8973a" stroke="#8a6e20" stroke-width="1"/>
  <rect x="15" y="7" width="22" height="76" rx="2" fill="#2d8a2d"/>
  <rect x="37" y="7" width="26" height="76" rx="2" fill="#d4af5a"/>
  <rect x="63" y="7" width="22" height="76" rx="2" fill="#2d8a2d"/>
  <rect x="46" y="81" width="8" height="14" rx="2" fill="#b8973a" stroke="#8a6e20" stroke-width="0.8"/>
  <circle cx="50" cy="130" r="38" fill="#b8973a" stroke="#8a6e20" stroke-width="2"/>
  <circle cx="50" cy="130" r="29" fill="#d4af5a" stroke="#8a6e20" stroke-width="1.5"/>
  <circle cx="50" cy="130" r="9" fill="#b8973a" stroke="#8a6e20" stroke-width="1"/>
  <g stroke="#8a6e20" stroke-width="1.5" stroke-linecap="round">
    <line x1="50" y1="114" x2="50" y2="121"/>
    <line x1="50" y1="139" x2="50" y2="146"/>
    <line x1="34" y1="130" x2="41" y2="130"/>
    <line x1="59" y1="130" x2="66" y2="130"/>
    <line x1="39" y1="119" x2="44" y2="124"/>
    <line x1="56" y1="136" x2="61" y2="141"/>
    <line x1="61" y1="119" x2="56" y2="124"/>
    <line x1="44" y1="136" x2="39" y2="141"/>
  </g>
</svg>
